<?xml version="1.0" encoding="UTF-8" standalone="no"?>
<!-- Created with Inkscape (http://www.inkscape.org/) -->

<svg
   width="2048"
   height="512"
   viewBox="0 0 2048 512"
   version="1.1"
   id="svg1"
   inkscape:version="1.3.2 (091e20e, 2023-11-25, custom)"
   sodipodi:docname="header-logo.svg"
   inkscape:export-filename="..\intrinsic-frontend\src\assets\header-logo.svg"
   inkscape:export-xdpi="96"
   inkscape:export-ydpi="96"
   xmlns:inkscape="http://www.inkscape.org/namespaces/inkscape"
   xmlns:sodipodi="http://sodipodi.sourceforge.net/DTD/sodipodi-0.dtd"
   xmlns="http://www.w3.org/2000/svg"
   xmlns:svg="http://www.w3.org/2000/svg">
  <sodipodi:namedview
     id="namedview1"
     pagecolor="#505050"
     bordercolor="#eeeeee"
     borderopacity="1"
     inkscape:showpageshadow="0"
     inkscape:pageopacity="0"
     inkscape:pagecheckerboard="0"
     inkscape:deskcolor="#505050"
     inkscape:document-units="px"
     inkscape:zoom="0.39697266"
     inkscape:cx="1355.2571"
     inkscape:cy="688.96432"
     inkscape:window-width="1920"
     inkscape:window-height="1009"
     inkscape:window-x="1912"
     inkscape:window-y="-8"
     inkscape:window-maximized="1"
     inkscape:current-layer="layer1" />
  <defs
     id="defs1" />
  <g
     inkscape:label="Layer 1"
     inkscape:groupmode="layer"
     id="layer1">
    <path
       style="-inkscape-font-specification:'Roboto Bold';stroke-width:1.61008;stroke-linecap:round;stroke-linejoin:round;paint-order:stroke fill markers"
       d="M 103.97925,416.41473 H 25.362108 V 34.859559 h 78.617142 z m 358.61941,0 H 383.98152 L 230.94016,165.36401 V 416.41473 H 152.32303 V 34.859559 h 78.61713 L 384.24358,286.4344 V 34.859559 h 78.35508 z M 786.36451,98.539441 H 669.48703 V 416.41473 H 590.86989 V 98.539441 H 475.56476 V 34.859559 H 786.36451 Z M 947.91697,276.73829 H 885.28532 V 416.41473 H 806.66818 V 34.859559 h 141.7729 q 67.61072,0 104.29872,30.136569 36.688,30.13657 36.688,85.168562 0,39.04652 -17.0337,65.25223 -16.7717,25.94365 -51.1011,41.40502 l 82.548,155.92399 v 3.6688 h -84.3824 z M 885.28532,213.0584 h 63.41782 q 29.61246,0 45.86,-14.93725 16.24756,-15.19931 16.24756,-41.66708 0,-26.99189 -15.46139,-42.45326 Q 980.15,98.539441 948.44108,98.539441 h -63.15576 z m 322.97958,203.35633 h -78.6171 V 34.859559 h 78.6171 z m 358.6195,0 h -78.6172 L 1335.2259,165.36401 v 251.05072 h -78.6172 V 34.859559 h 78.6172 L 1488.5293,286.4344 V 34.859559 h 78.3551 z m 242.004,-100.10582 q 0,-22.27485 -15.7235,-34.06742 -15.7234,-12.05463 -56.6043,-25.15749 -40.8809,-13.36491 -64.7281,-26.20571 -64.9902,-35.11566 -64.9902,-94.60262 0,-30.92274 17.2958,-55.032 17.5578,-24.371312 50.0529,-37.998283 32.7572,-13.62697 73.376,-13.62697 40.8809,0 72.8519,14.937256 31.971,14.675199 49.5288,41.667083 17.8199,26.991884 17.8199,61.321364 h -78.6172 q 0,-26.20571 -16.5096,-40.61885 -16.5096,-14.6752 -46.3841,-14.6752 -28.8263,0 -44.8117,12.31668 -15.9855,12.05463 -15.9855,31.97097 0,18.60606 18.606,31.1848 18.8681,12.57874 55.2941,23.58514 67.0866,20.1784 97.7473,50.05291 30.6607,29.87452 30.6607,74.42423 0,49.52879 -37.4742,77.83096 -37.4742,28.04012 -100.892,28.04012 -44.0256,0 -80.1895,-15.98549 -36.1639,-16.24754 -55.294,-44.28765 -18.8681,-28.04011 -18.8681,-64.99017 h 78.8792 q 0,63.15577 75.4724,63.15577 28.0401,0 43.7635,-11.26846 15.7235,-11.53051 15.7235,-31.97097 z m 191.1648,100.10582 h -78.6171 V 34.859559 h 78.6171 z m 347.8752,-127.0977 q -4.455,61.58342 -45.598,96.96113 -40.8809,35.37772 -107.9675,35.37772 -73.376,0 -115.5672,-49.26674 -41.9292,-49.5288 -41.9292,-135.74559 v -23.32309 q 0,-55.03199 19.3923,-96.96113 19.3922,-41.929145 55.294,-64.204001 36.1639,-22.536912 83.8583,-22.536912 66.0384,0 106.3952,35.377711 40.3568,35.377712 46.6462,99.319652 h -78.6172 q -2.8826,-36.95006 -20.7025,-53.45965 -17.5578,-16.771661 -53.7217,-16.771661 -39.3086,0 -58.9628,28.302171 -19.3923,28.04011 -19.9164,87.26502 v 28.82629 q 0,61.84548 18.6061,90.4097 18.8681,28.56423 59.2249,28.56423 36.4259,0 54.2458,-16.5096 18.0819,-16.77165 20.7025,-51.62525 z"
       id="text21"
       transform="scale(0.86438433,1.1568928)"
       aria-label="INTRINSIC" />
  </g>
</svg>
